<?xml version="1.0" encoding="utf-8"?>
<!-- Generator: Adobe Illustrator 24.0.2, SVG Export Plug-In . SVG Version: 6.00 Build 0)  -->
<svg version="1.1" id="Layer_1" xmlns="http://www.w3.org/2000/svg" xmlns:xlink="http://www.w3.org/1999/xlink" x="0px" y="0px"
	 viewBox="0 0 2500 917" enable-background="new 0 0 2500 917" xml:space="preserve">
<linearGradient id="polygon16_1_" gradientUnits="userSpaceOnUse" x1="1276.1017" y1="1507.6241" x2="1266.0837" y2="1488.9561" gradientTransform="matrix(9.2764 0 0 9.2764 -11714.5215 -13488.5068)">
	<stop  offset="0" style="stop-color:#0070B6"/>
	<stop  offset="1" style="stop-color:#1D2C5E"/>
</linearGradient>
<path id="polygon16" fill="url(#polygon16_1_)" d="M0,339.76l111.32,188.31l44.53-42.67L34.32,304.51L0,339.76z"/>
<path id="polygon18" fill="#0071B9" d="M1656.77,191.34l-4.64,25.05l52.88-17.63l-6.49-30.61L1656.77,191.34z"/>
<linearGradient id="polygon25_1_" gradientUnits="userSpaceOnUse" x1="1398.2762" y1="1469.4509" x2="1410.9912" y2="1455.8269" gradientTransform="matrix(9.2764 0 0 9.2764 -11714.5215 -13488.5068)">
	<stop  offset="0" style="stop-color:#0070B6"/>
	<stop  offset="1" style="stop-color:#1D2C5E"/>
</linearGradient>
<path id="polygon25" fill="url(#polygon25_1_)" d="M1345.08,21.58l-171.61,196.66l50.09-13.91L1386.83,0.24L1345.08,21.58z"/>
<path id="polygon27" fill="#1D2C5E" d="M2264.38,290.6l41.74-22.26l-12.06,105.75L2264.38,290.6z"/>
<path id="polygon29" fill="#1D2C5E" d="M2001.86,358.31l38.03,8.35l47.31-23.19l-41.74-15.77L2001.86,358.31z"/>
<linearGradient id="polygon36_1_" gradientUnits="userSpaceOnUse" x1="1342.816" y1="1492.1887" x2="1341.3" y2="1479.4507" gradientTransform="matrix(9.2764 0 0 9.2764 -11714.5215 -13488.5068)">
	<stop  offset="0" style="stop-color:#0070B6"/>
	<stop  offset="1" style="stop-color:#1D2C5E"/>
</linearGradient>
<path id="polygon36" fill="url(#polygon36_1_)" d="M710.58,247l5.57,121.52l52.88-20.41l-15.77-124.3L710.58,247z"/>
<linearGradient id="polygon43_1_" gradientUnits="userSpaceOnUse" x1="1481.7042" y1="1489.7363" x2="1481.0992" y2="1478.2383" gradientTransform="matrix(9.2764 0 0 9.2764 -11714.5215 -13488.5068)">
	<stop  offset="0" style="stop-color:#125D9E"/>
	<stop  offset="1" style="stop-color:#1D2C5E"/>
</linearGradient>
<path id="polygon43" fill="url(#polygon43_1_)" d="M2042.67,209.89l-41.74,23.19l0.93,125.23l42.67-21.34l12.99-61.22
	L2042.67,209.89z"/>
<path id="polygon45" fill="#312370" d="M2037.11,366.66l-46.38,411.87l74.21-14.84l13.91-419.3L2037.11,366.66z"/>
<path id="polygon47" fill="#21386E" d="M2127.09,798.02l1.86,55.66l141.93,45.45l42.67-22.26l-140.07-108.53l-141-12.06
	l-41.74,22.26L2127.09,798.02z"/>
<path id="polygon49" fill="#21386E" d="M1600.19,699.69l34.32-18.55l23.19,40.82l32.47-17.63l6.49,53.8l206.86,37.11l40.82-23.19
	l-284.79-173.47l-202.23,34.32l-38.96,38.03L1600.19,699.69z"/>
<linearGradient id="polygon56_1_" gradientUnits="userSpaceOnUse" x1="1439.2802" y1="1473.1584" x2="1425.9362" y2="1494.3865" gradientTransform="matrix(9.2764 0 0 9.2764 -11714.5215 -13488.5068)">
	<stop  offset="0" style="stop-color:#125D9E"/>
	<stop  offset="1" style="stop-color:#1D2C5E"/>
</linearGradient>
<path id="polygon56" fill="url(#polygon56_1_)" d="M1534.32,193.19l-41.74,23.19l-74.21,454.55l41.74-22.26l71.43-255.1
	L1534.32,193.19z"/>
<path id="polygon58" fill="#1D2C5E" d="M1204.08,254.42l-33.4,17.63l2.78,11.13l78.85-50.09L1218,195.98l-44.53,22.26
	L1204.08,254.42z"/>
<path id="polygon60" fill="#21386E" d="M1294.06,791.52L957.33,624.55l41.74-32.47l336.73,176.25L1294.06,791.52z"/>
<path id="polygon62" fill="#1D2C5E" d="M988.87,170l-51.02,96.47l53.8-15.77l38.96-103.9L988.87,170z"/>
<linearGradient id="path69_1_" gradientUnits="userSpaceOnUse" x1="1321.2501" y1="1507.1826" x2="1330.3481" y2="1525.0756" gradientTransform="matrix(9.2764 0 0 9.2764 -11714.5215 -13488.5068)">
	<stop  offset="0" style="stop-color:#105FA1"/>
	<stop  offset="1" style="stop-color:#1D2C5E"/>
</linearGradient>
<path id="path69" fill="url(#path69_1_)" d="M525.05,569.82l-42.67,29.68c0,0,9.28,48.24,21.34,81.63
	c12.06,33.4,39.89,60.3,39.89,60.3c18.55,17.63,39.89,30.61,64.94,38.03c47.31,13.91,101.11,4.64,147.5-25.05
	c12.06-7.42,28.76-19.48,38.96-29.68C749.54,752.56,525.05,569.82,525.05,569.82L525.05,569.82z"/>
<path id="polygon71" fill="#1D2C5E" d="M756.03,359.24l38.96,433.21l161.41-23.19L999.07,747L799.63,333.27l-40.82,13.91
	l-42.67,21.34L756.03,359.24z"/>
<linearGradient id="polygon78_1_" gradientUnits="userSpaceOnUse" x1="1286.8474" y1="1501.1116" x2="1297.3774" y2="1525.5216" gradientTransform="matrix(9.2764 0 0 9.2764 -11714.5215 -13488.5068)">
	<stop  offset="0" style="stop-color:#105FA1"/>
	<stop  offset="1" style="stop-color:#1D2C5E"/>
</linearGradient>
<path id="polygon78" fill="url(#polygon78_1_)" d="M153.06,509.52l179.96,407.24l170.69-54.73l41.74-27.83L191.09,463.14
	l-44.53,26.9l-35.25,38.03L153.06,509.52z"/>
<path id="path80" fill="#1D2C5E" d="M1933.21,701.54l2.78,20.41c14.84-1.86,29.68-3.71,43.6-8.35
	c15.77-5.57,49.17-20.41,61.22-31.54C2035.25,683.92,1957.33,704.33,1933.21,701.54"/>
<path id="path82" fill="#1D2C5E" d="M1329.31,597.65l6.49,32.47c34.32-5.57,64.01-17.63,93.69-35.25
	c18.55-11.13,38.03-26.9,44.53-31.54C1469.39,566.11,1329.31,597.65,1329.31,597.65L1329.31,597.65z"/>
<g id="g84" transform="translate(-5.451 -1.686)">
	<path id="path86" fill="#FFCB05" d="M385.31,879.61l-12.99-29.68L201.64,469.59l-3.71-7.42l-7.42,3.71l-5.57,2.78l-30.61,14.84
		c-4.64-7.42-12.06-20.41-16.7-28.76L68.99,338.79l-17.63-30.61l29.68-18.55c27.83-17.63,59.37-34.32,94.62-49.17
		c68.65-28.76,138.22-44.53,202.23-44.53c21.34,0,41.74,1.86,60.3,4.64c31.54,3.71,61.22,13.91,85.34,30.61
		c36.18,20.41,64.94,51.95,80.71,89.05c12.99,30.61,15.77,66.79,7.42,103.9l-4.64,22.26l18.55-12.99
		c12.06-9.28,25.05-16.7,38.96-22.26c24.12-10.2,49.17-15.77,74.21-15.77c24.12,0,46.38,4.64,66.79,13.91l12.99,5.57l-0.93-14.84
		l-5.57-62.15l-0.93-10.2l-9.28,2.78l-28.76,7.42l-4.64-105.75l211.5-67.72l-1.86,82.56l15.77,3.71l46.38-88.13l138.22,122.45
		l5.57,5.57l5.57-5.57c18.55-17.63,41.74-32.47,66.79-42.67l10.2-4.64l-7.42-9.28l-25.05-30.61l158.63-182.75l83.49,124.3
		L1349.13,208l-27.83,14.84l32.47,0.93c60.3,0.93,114.1,26.9,150.28,71.43l12.99,16.7l8.35,10.2l-13.91,14.84l-9.28,10.2
		l-31.54,34.32l-5.57,6.49l6.49,5.57l29.68,26.9l11.13,10.2l2.78-14.84l11.13-70.5l2.78-18.55l2.78-18.55l16.7-104.82h157.7
		l0.93-7.42l2.78-17.63h137.29l33.4,209.65l1.86,13.91l11.13-8.35c13.91-10.2,28.76-17.63,44.53-24.12
		c21.34-8.35,42.67-12.06,64.94-12.06c25.97,0,51.02,5.57,72.36,17.63c0.93,0,0.93,0.93,2.78,1.86l10.2,3.71l0.93-11.13l2.78-23.19
		l0.93-7.42l-7.42-1.86l-27.83-6.49l-0.93-109.46l212.43,46.38l15.77,78.85h16.7l16.7-67.72l177.18,42.67l-181.82,546.38
		l-128.94-40.82l-0.93-50.09v-7.42l-7.42-0.93l-128.94-18.55l7.42-65.86l1.86-15.77l-13.91,7.42c-6.49,3.71-12.99,6.49-19.48,8.35
		c-21.34,8.35-42.67,12.06-64.01,12.06c-6.49,0-12.06,0-18.55-0.93l-11.13-0.93l1.86,11.13l9.28,57.51l-188.31-33.4l-10.2-85.34
		l-2.78-27.83l-12.99,24.12l-21.34,41.74l-39.89-73.28l-12.06-22.26l-3.71,25.05l-8.35,56.59l-165.12-25.97l12.99-77.92l2.78-17.63
		l-15.77,9.28c-26.9,15.77-58.44,28.76-94.62,37.11c-12.99,2.78-25.97,5.57-39.89,6.49l-7.42,0.93v155.84l-324.68-160.48
		l-12.06-5.57v151.21l-145.64,21.34l-6.49-65.86l-1.86-17.63l-12.99,12.06c-19.48,18.55-40.82,33.4-64.01,43.6
		c-24.12,10.2-49.17,15.77-73.28,15.77c-25.05,0-48.24-5.57-69.57-14.84c-38.96-18.55-67.72-52.88-79.78-96.47
		c-5.57-20.41-7.42-41.74-4.64-64.01l2.78-23.19l-16.7,16.7c-12.06,11.13-25.05,22.26-38.96,32.47l-4.64,3.71l1.86,5.57
		l49.17,187.38l8.35,33.4l-32.47,10.2l-91.84,29.68L385.31,879.61L385.31,879.61z M426.13,375.9c-4.64,0-9.28,0-14.84,0.93
		l-6.49,0.93l-9.28,1.86l2.78,9.28l1.86,5.57l25.97,86.27l2.78,8.35l3.71,12.06l9.28-8.35l6.49-5.57
		c25.97-23.19,34.32-46.38,28.76-76.07c-3.71-17.63-16.7-25.97-25.05-29.68C446.54,377.76,436.33,375.9,426.13,375.9L426.13,375.9z
		 M1132.99,378.68l-16.7,15.77l-43.6,41.74l-9.28,9.28l12.06,4.64l46.38,17.63l13.91,5.57l-2.78-14.84
		c-3.71-19.48-4.64-38.96-2.78-57.51L1132.99,378.68z M1322.23,330.45c-17.63,0-35.25,7.42-47.31,21.34
		c-18.55,20.41-22.26,51.02-9.28,75.14l3.71,6.49l5.57,10.2l8.35-9.28l5.57-5.57l64.01-72.36l4.64-5.57l8.35-9.28l-11.13-4.64
		l-7.42-2.78C1338,332.3,1330.58,330.45,1322.23,330.45L1322.23,330.45z"/>
</g>
<path id="path88" fill="#7D7F68" d="M1413.73,436.24l-1.86,1.86C1412.8,438.09,1413.73,437.16,1413.73,436.24z"/>
<path id="polygon90" fill="#7D7F68" d="M1469.39,386.14l31.54-34.32l-11.13,11.13v-0.93l-9.28,10.2l-31.54,33.4l29.68,26.9
	l5.57-33.4l14.84,12.99L1469.39,386.14z"/>
<path id="polygon92" fill="#7D7F68" d="M1469.39,386.14l29.68,25.97l11.13-70.5l-9.28,10.2L1469.39,386.14z"/>
<path id="path94" fill="#7D7F68" d="M1073.28,440.87"/>
<path id="path96" fill="#C7A008" d="M1249.54,470.56c2.78,2.78,0,0.93,2.78,2.78l19.48-13.91c-2.78-1.86-5.57-4.64-8.35-6.49
	c-27.83-25.97-20.41-83.49-2.78-115.03C1212.43,376.87,1215.21,436.24,1249.54,470.56"/>
<path id="path98" fill="#C7A008" d="M1484.23,503.03c-32.47,26.9-68.65,43.6-116.88,55.66c-10.2,2.78-21.34,4.64-30.61,4.64
	c-76.99,7.42-141-27.83-165.12-84.42c-2.78-6.49-5.57-13.91-7.42-21.34c-11.13-48.24-1.86-90.91,22.26-125.23
	c2.78-3.71,4.64-6.49,7.42-9.28c-0.93,0.93-2.78,1.86-3.71,2.78c-9.28,8.35-17.63,16.7-24.12,26.9
	c-24.12,33.4-33.4,76.99-22.26,125.23c1.86,7.42,3.71,14.84,7.42,21.34c24.12,57.51,89.05,92.76,165.12,85.34
	c10.2-0.93,20.41-2.78,31.54-5.57c48.24-12.06,85.34-28.76,116.88-55.66c7.42-6.49,15.77-13.91,23.19-21.34l-0.93-0.93
	C1485.16,502.1,1484.23,502.1,1484.23,503.03"/>
<path id="polygon100" fill="#C7A008" d="M943.41,357.39l85.34-120.59l-3.71-2.78l-82.56,115.96L943.41,357.39z"/>
<path id="polygon102" fill="#C7A008" d="M1510.2,341.62l-11.13,70.5l-14.84-12.99l-5.57,33.4l-29.68-26.9l31.54-33.4l9.28-10.2v0.93
	l11.13-11.13L1510.2,341.62z"/>
<path id="polygon104" fill="#C7A008" d="M1404.45,143.1l29.68-12.99l-54.73-70.5l-17.63,25.97L1404.45,143.1z"/>
<path id="path106" fill="#C7A008" d="M573.28,317.5c-139.15-168.83-388.68-77.92-477.74,0.93l3.71,6.49
	c20.41-12.06,42.67-22.26,64.94-32.47c89.05-38.03,174.4-49.17,242.12-37.11c24.12,2.78,49.17,10.2,71.43,25.05
	c30.61,17.63,53.8,41.74,67.72,73.28c24.12,55.66,2.78,129.87-53.8,191.09C563.08,478.91,612.24,415.83,573.28,317.5L573.28,317.5z"
	/>
<path id="path108" fill="#C7A008" d="M856.22,514.16c-0.93-2.78-0.93-6.49-1.86-9.28c-7.42-27.83-24.12-50.09-46.38-64.94
	c-35.25-24.12-85.34-28.76-134.51-8.35c-25.97,11.13-48.24,28.76-66.79,49.17c13.91-12.06,29.68-21.34,46.38-28.76
	c49.17-21.34,99.26-15.77,134.51,8.35c22.26,14.84,38.96,37.11,46.38,64.94c0.93,2.78,1.86,6.49,1.86,9.28
	c1.86,11.13,2.78,21.34,2.78,32.47c-0.93,32.47-12.99,64.94-32.47,92.76c-2.78,4.64-6.49,8.35-10.2,12.99
	c11.13-10.2,21.34-20.41,29.68-32.47c20.41-27.83,31.54-60.3,33.4-92.76C859,536.42,858.07,525.29,856.22,514.16"/>
<path id="path110" fill="#C7A008" d="M719.85,473.34c0,0,20.41-20.41,19.48-20.41c-25.05-0.93-36.18,23.19-37.11,25.05
	C707.79,475.2,713.36,474.27,719.85,473.34"/>
<path id="path112" fill="#C7A008" d="M767.16,502.1c0.93,3.71,1.86,6.49,1.86,10.2c0,5.57-0.93,10.2-3.71,14.84
	c3.71-1.86,33.4-16.7,22.26-46.38C788.5,482.62,766.23,502.1,767.16,502.1"/>
<path id="path114" fill="#C7A008" d="M652.13,519.72c0-12.06,21.34-42.67,27.83-52.88c-33.4,21.34-48.24,50.09-48.24,72.36
	c0,38.96,34.32,70.5,75.14,70.5c19.48,0,54.73-10.2,77.92-47.31c-12.06,8.35-42.67,26.9-59.37,26.9
	C684.6,589.3,652.13,558.69,652.13,519.72"/>
<path id="polygon116" fill="#C7A008" d="M938.78,554.97l0.93,156.77l25.05,1.86l-5.57-179.04L938.78,554.97z"/>
<path id="polygon118" fill="#C7A008" d="M795.92,255.35v13.91l118.74-35.25l8.35,151.21l20.41-27.83l-4.64-151.21L795.92,255.35z"/>
<path id="polygon120" fill="#C7A008" d="M1153.06,309.15l-110.39-102.04l-13.91,29.68l98.33,91.84L1153.06,309.15z"/>
<path id="path122" fill="#C7A008" d="M1136.36,499.32l-130.8-43.6l-18.55,20.41l129.87,51.95c14.84,27.83,37.11,51.95,64.94,68.65
	c26.9,16.7,58.44,26.9,90.91,29.68v64.01l20.41,10.2l6.49-96.47L1136.36,499.32L1136.36,499.32z"/>
<path id="path124" fill="#C7A008" d="M1346.01,481.69c32.47-7.42,50.09-24.12,66.79-42.67c-12.06,10.2-71.43,23.19-81.63,25.97
	l-19.48,21.34C1320.04,486.33,1334.88,484.47,1346.01,481.69"/>
<path id="path126" fill="#C7A008" d="M1287.57,259.06c-59.37,7.42-89.98,57.51-94.62,63.08c22.26-18.55,49.17-32.47,79.78-38.96
	c73.28-17.63,137.29,4.64,177.18,53.8l25.05-20.41C1435.07,268.33,1360.85,241.43,1287.57,259.06"/>
<path id="path128" fill="#C7A008" d="M1486.09,501.17c7.42-5.57,19.48-12.06,26.9-19.48l-78.85-70.5
	c-6.49,7.42-11.13,19.48-18.55,25.05L1486.09,501.17L1486.09,501.17z"/>
<path id="path130" fill="#C7A008" d="M1891.47,690.41c-82.56-68.65-77.92-214.29-37.11-260.67l-36.18-229.13l-79.78,10.2
	l-3.71,20.41h60.3l32.47,207.79c-40.82,46.38-60.3,108.53-47.31,166.05c10.2,44.53,38.03,79.78,76.99,100.19
	c3.71,1.86,8.35,3.71,12.06,5.57l0.93,2.78l24.12,3.71C1893.32,718.24,1896.1,692.27,1891.47,690.41L1891.47,690.41z"/>
<path id="polygon132" fill="#C7A008" d="M1573.28,234.01l-3.71,20.41h90.91l26.9,147.5l20.41-20.41l-21.34-155.84L1573.28,234.01z"
	/>
<path id="polygon134" fill="#C7A008" d="M1729.13,519.72l-29.68,76.07l7.42,20.41l41.74-115.96L1729.13,519.72z"/>
<path id="polygon136" fill="#C7A008" d="M1641.93,472.41l-20.41,20.41l-22.26,137.29l21.34,7.42L1641.93,472.41z"/>
<path id="path138" fill="#C7A008" d="M2051.02,427.89c12.06,8.35,22.26,19.48,29.68,32.47c6.49,10.2,10.2,20.41,13.91,33.4
	c10.2,41.74-1.86,86.27-27.83,121.52c-2.78,3.71-5.57,7.42-8.35,10.2c10.2-9.28,140.07-104.82,13.91-230.06
	c-139.15-45.45-192.02,44.53-196.66,51.02c14.84-12.06,31.54-23.19,50.09-29.68C1972.17,398.2,2018.55,404.7,2051.02,427.89"/>
<path id="path140" fill="#C7A008" d="M1981.45,437.16c0,0.93,20.41-20.41,20.41-20.41c-25.05,0.93-37.11,12.99-35.25,18.55
	c-1.86,1.86-2.78,4.64-3.71,6.49C1967.53,439.02,1977.74,437.16,1981.45,437.16"/>
<path id="path142" fill="#C7A008" d="M2027.83,468.7c0.93,3.71,0.93,6.49,0.93,10.2c0,4.64-1.86,9.28-3.71,12.99
	c3.71-1.86,33.4-11.13,22.26-44.53C2048.24,449.22,2026.9,468.7,2027.83,468.7"/>
<path id="path144" fill="#C7A008" d="M1961.97,573.53c27.83,0.93,59.37-15.77,81.63-46.38c-56.59,12.06-116.88-83.49-111.32-92.76
	c-21.34,15.77-40.82,45.45-41.74,66.79C1888.68,540.13,1921.15,571.67,1961.97,573.53"/>
<path id="polygon146" fill="#C7A008" d="M2274.58,821.21l12.99,8.35l163.27-489.8l-122.45-27.83l-0.93,28.76l98.33,21.34
	L2274.58,821.21z"/>
<path id="polygon148" fill="#C7A008" d="M2080.71,259.06l0.93,27.83l129.87,25.97l50.09,237.48l20.41-20.41l-48.24-240.26
	L2080.71,259.06z"/>
<path id="polygon150" fill="#C7A008" d="M2180.89,529.93l-36.18,202.23l20.41,6.49l36.18-229.13L2180.89,529.93z"/>
<path id="polygon152" fill="#C7A008" d="M495.36,806.37l-60.3-220.78l-22.26,15.77l56.59,210.58L495.36,806.37z"/>
<path id="path154" fill="#C7A008" d="M479.59,475.2c-13.91,14.84-45.45,43.6-63.08,54.73l-11.13-34.32l-23.19-76.07l-14.84-51.02
	l-14.84,18.55l14.84,51.02l23.19,75.14l11.13,34.32C426.72,533.64,461.97,503.95,479.59,475.2"/>
<path id="path156" fill="#7D7F68" d="M1340.45,344.4c-19.48-7.42-46.38-5.57-61.22,11.13c-3.71,3.71-10.2,12.99-12.06,17.63
	c13.91-11.13,39.89-13.91,55.66-7.42L1340.45,344.4L1340.45,344.4z"/>
<path id="path158" fill="#7D7F68" d="M462.89,413.05c-1.86-11.13-12.99-20.41-18.55-23.19c-9.28-4.64-26.9-5.57-38.96-2.78
	c1.86,7.42,4.64,16.7,5.57,20.41c4.64,0.93,12.99,1.86,17.63,3.71c5.57,2.78,14.84,8.35,16.7,20.41
	c2.78,14.84,1.86,29.68-4.64,40.82C458.26,455.72,466.6,437.16,462.89,413.05"/>
<g id="g160" transform="translate(-5.451 -1.686)">
	<g id="g162">
		<path id="path164" fill="#3C5AA6" d="M498.48,413.93c-8.35-44.53-66.79-69.57-125.23-38.03l14.84,51.02l23.19,76.07l11.13,34.32
			C466.02,510.41,509.62,476.09,498.48,413.93L498.48,413.93z M440.97,483.51c-6.49-20.41-20.41-64.94-20.41-64.94
			s-2.78-9.28-6.49-20.41c12.06-1.86,24.12-0.93,33.4,3.71c5.57,2.78,14.84,8.35,16.7,20.41
			C469.73,446.4,461.38,464.95,440.97,483.51L440.97,483.51z"/>
	</g>
</g>
<g id="g166" transform="translate(-5.451 -1.686)">
	<g id="g168">
		<path id="path170" fill="#3567B0" d="M1376.04,343.43c-32.47-29.68-82.56-27.83-112.24,4.64c-29.68,32.47-27.83,82.56,4.64,112.24
			c2.78,2.78,5.57,4.64,8.35,6.49l104.82-118.74C1379.75,347.14,1377.89,345.29,1376.04,343.43z M1277.71,426.92
			c-10.2-18.55-8.35-42.67,7.42-59.37c14.84-15.77,37.11-20.41,56.59-12.99L1277.71,426.92L1277.71,426.92z"/>
	</g>
</g>
<path id="polygon172" fill="#1E2D5F" d="M1510.2,328.63l-57.51,55.66l54.73,49.17L1510.2,328.63z"/>
<path id="path174" fill="#3466AF" d="M2047.31,448.3c0.93,3.71,0.93,7.42,0.93,11.13c-0.93,22.26-21.34,38.96-46.38,38.03
	c-25.05-0.93-44.53-19.48-43.6-41.74c0.93-20.41,19.48-37.11,41.74-38.03c-4.64-0.93-9.28-1.86-13.91-1.86
	c-41.74-1.86-75.14,27.83-76.99,64.01c-1.86,38.96,29.68,71.43,70.5,72.36c41.74,1.86,75.14-27.83,76.99-66.79
	C2059.37,472.41,2054.73,459.43,2047.31,448.3"/>
<linearGradient id="path183_1_" gradientUnits="userSpaceOnUse" x1="1489.0804" y1="-1179.9075" x2="1505.0094" y2="-1179.9075" gradientTransform="matrix(9.2764 0 0 -9.2764 -13161.6455 -10424.6855)">
	<stop  offset="0" style="stop-color:#3C5AA6"/>
	<stop  offset="0.933" style="stop-color:#2B73B9"/>
	<stop  offset="1" style="stop-color:#2A75BB"/>
</linearGradient>
<path id="path183" fill="url(#path183_1_)" d="M789.42,492.82c0,22.26-20.41,39.89-44.53,39.89c-25.05,0-44.53-17.63-44.53-39.89
	c0-20.41,17.63-38.03,40.82-39.89c-4.64-0.93-9.28-0.93-13.91-0.93c-41.74,0-74.21,30.61-74.21,67.72
	c0,38.96,32.47,69.57,73.28,69.57c41.74,0,74.21-30.61,74.21-69.57c0-13.91-4.64-25.97-12.06-37.11
	C788.5,485.4,789.42,489.11,789.42,492.82"/>
<g id="g185" transform="translate(-5.451 -1.686)">
	<g id="g187">
		
			<linearGradient id="path196_1_" gradientUnits="userSpaceOnUse" x1="1433.3763" y1="-1171.6714" x2="1699.0764" y2="-1171.6714" gradientTransform="matrix(9.2764 0 0 -9.2764 -13257.3262 -10423)">
			<stop  offset="0" style="stop-color:#3C5AA6"/>
			<stop  offset="0.933" style="stop-color:#2B73B9"/>
			<stop  offset="1" style="stop-color:#2A75BB"/>
		</linearGradient>
		<path id="path196" fill="url(#path196_1_)" d="M2311.1,270.15l-18.55,76.07l-16.7-84.42l-228.2-50.09l1.86,127.09l34.32,7.42
			l-2.78,23.19c0,0-0.93,0-0.93-0.93c-42.67-22.26-95.55-25.05-144.71-5.57c-16.7,6.49-32.47,14.84-46.38,25.05l-34.32-217.07
			h-151.21l-3.71,25.05h-159.55l-18.55,111.32l-12.99-16.7c-38.96-47.31-94.62-73.28-156.77-75.14l135.44-72.36l-94.62-141
			l-170.69,196.66l29.68,36.18c-26.9,11.13-50.09,25.97-69.57,44.53l-146.57-129.87l-51.02,97.4l1.86-94.62L757.3,225.62
			l6.49,122.45l38.96-10.2l5.57,62.15c-44.53-20.41-98.33-19.48-147.5,1.86c-14.84,6.49-28.76,13.91-40.82,23.19
			c8.35-38.03,6.49-75.14-8.35-108.53c-16.7-38.96-47.31-72.36-83.49-92.76c-25.97-17.63-56.59-27.83-89.05-31.54
			c-78.85-13.91-174.4,0-268.09,39.89c-34.32,14.84-66.79,31.54-95.55,50.09L39.3,305.4l22.26,37.11l68.65,116.88l21.34,35.25
			l37.11-18.55l5.57-2.78L364.9,853.64l16.7,36.18l38.03-12.06l91.84-29.68l40.82-12.99l-10.2-40.82l-49.17-187.38
			c13.91-10.2,26.9-21.34,38.96-33.4c-2.78,22.26-0.93,45.45,4.64,66.79c12.99,45.45,42.67,81.63,84.42,101.11
			c44.53,21.34,99.26,21.34,149.35,0c25.05-11.13,48.24-25.97,66.79-45.45l6.49,75.14l161.41-24.12V602.25l336.73,166.98V608.74
			c13.91-0.93,26.9-3.71,40.82-6.49c37.11-9.28,68.65-21.34,97.4-38.03l-13.91,86.27l181.82,28.76l10.2-65.86l47.31,88.13
			l28.76-55.66l10.2,91.84l205.94,36.18l-11.13-69.57c27.83,2.78,57.51-0.93,86.27-11.13c6.49-2.78,13.91-5.57,19.48-9.28
			l-8.35,74.21l137.29,19.48l0.93,56.59l142.86,44.53l186.46-561.22L2311.1,270.15L2311.1,270.15z M1505.91,353.64l9.28-10.2
			l-11.13,70.5l-29.68-26.9L1505.91,353.64z M1385.31,64.21l50.09,67.72l-142.86,70.5l-10.2-14.84
			C1282.34,188.52,1385.31,64.21,1385.31,64.21z M440.04,587.4l56.59,218.92l-91.84,29.68L215.55,413.01
			c-10.2,5.57-29.68,14.84-46.38,23.19l-68.65-115.96c26.9-17.63,57.51-32.47,89.05-46.38c89.05-38.03,174.4-49.17,242.12-37.11
			c24.12,2.78,49.17,10.2,71.43,25.05c30.61,17.63,53.8,41.74,67.72,73.28C604.24,411.15,549.5,520.61,440.04,587.4L440.04,587.4z
			 M863.98,548.44c-0.93,32.47-12.99,64.94-33.4,92.76c-19.48,26.9-45.45,48.24-76.99,62.15c-79.78,34.32-159.55,0-180.89-76.07
			c-20.41-73.28,27.83-160.48,104.82-193.88c49.17-21.34,99.26-15.77,134.51,8.35c22.26,14.84,38.96,37.11,46.38,64.94
			c0.93,2.78,1.86,6.49,1.86,9.28C863.98,527.11,863.98,538.24,863.98,548.44z M1299.04,703.36L964.16,536.38l0.93,175.32
			l-86.27,12.06l-6.49-72.36c26.9-45.45,36.18-100.19,22.26-149.35c-7.42-26.9-21.34-51.02-40.82-69.57l-12.06-147.5l-38.96,10.2
			l-1.86-37.11l139.15-41.74l8.35,142.86l102.04-143.78l101.11,95.55l-140.07,147.5l131.73,51.95
			c14.84,27.83,37.11,51.02,64.94,68.65c26.9,16.7,58.44,26.9,90.91,29.68L1299.04,703.36L1299.04,703.36z M1125.57,460.32
			l-46.38-17.63l43.6-41.74C1120.01,420.43,1120.93,439.91,1125.57,460.32z M1489.21,504.84c-32.47,26.9-68.65,43.6-116.88,55.66
			c-10.2,2.78-21.34,4.64-30.61,4.64c-76.99,7.42-141-27.83-165.12-84.42c-2.78-6.49-5.57-13.91-7.42-21.34
			c-11.13-48.24-1.86-90.91,22.26-125.23c6.49-10.2,14.84-18.55,24.12-26.9c22.26-20.41,51.02-34.32,83.49-42.67
			c73.28-17.63,137.29,4.64,177.18,52.88l-139.15,148.42c9.28,1.86,24.12-0.93,35.25-3.71c33.4-8.35,51.95-25.97,67.72-44.53
			l55.66,50.09l16.7,14.84C1504.98,490.93,1497.56,498.35,1489.21,504.84z M1785.13,702.43l-30.61-200.37l-42.67,110.39
			l-64.01-138.22h-0.93l-25.05,160.48l-106.68-18.55l14.84-89.05c3.71-3.71,8.35-7.42,12.06-12.06l34.32-35.25l-33.4-30.61
			l36.18-213.36h107.61l26.9,147.5l30.61-170.69h76.99l32.47,207.79c-40.82,46.38-60.3,108.53-47.31,166.05
			c10.2,44.53,38.03,79.78,76.99,101.11c3.71,1.86,8.35,3.71,12.06,5.57l3.71,26.9L1785.13,702.43z M2051.36,636.57
			c-12.06,8.35-25.05,15.77-38.96,20.41c-27.83,10.2-54.73,12.99-79.78,7.42c-16.7-3.71-32.47-10.2-46.38-19.48
			c-21.34-15.77-37.11-38.03-44.53-66.79c-8.35-34.32-0.93-71.43,17.63-103.9c9.28-15.77,21.34-30.61,35.25-43.6
			c15.77-13.91,34.32-25.97,53.8-33.4c47.31-17.63,93.69-11.13,126.16,12.06c12.06,8.35,22.26,19.48,29.68,32.47
			c5.57,10.2,10.2,21.34,12.99,33.4c10.2,41.74-1.86,86.27-27.83,121.52C2081.04,612.45,2067.13,625.44,2051.36,636.57
			L2051.36,636.57z M2292.55,825.81l-78.85-23.19l-6.49-291.28l-39.89,224.49l-86.27-13.91l6.49-64.94
			c56.59-47.31,86.27-122.45,69.57-191.09c-7.42-29.68-22.26-56.59-44.53-76.07l7.42-76.07l-32.47-8.35l0.93-40.82l148.42,29.68
			l50.09,236.55L2338,318.39l113.17,25.05L2292.55,825.81L2292.55,825.81z"/>
	</g>
</g>
<path id="path198" d="M2393.32,791.52h3.71c4.64,0,8.35-1.86,8.35-6.49c0-2.78-2.78-6.49-8.35-6.49h-3.71V791.52L2393.32,791.52z
	 M2393.32,811h-5.57v-35.25c2.78-0.93,5.57-0.93,10.2-0.93c5.57,0,9.28,0.93,11.13,2.78c1.86,1.86,3.71,3.71,3.71,7.42
	c0,4.64-2.78,7.42-6.49,8.35c2.78,0.93,5.57,3.71,5.57,8.35c0.93,5.57,1.86,7.42,1.86,8.35h-5.57c-0.93-0.93-1.86-4.64-2.78-9.28
	c-0.93-4.64-2.78-6.49-7.42-6.49h-4.64L2393.32,811L2393.32,811z M2399.81,765.55c-13.91,0-25.05,12.06-25.05,26.9
	s11.13,26.9,25.97,26.9c13.91,0,25.05-12.06,25.05-26.9C2424.86,777.61,2413.73,765.55,2399.81,765.55z M2399.81,760.91
	c17.63,0,30.61,13.91,30.61,31.54s-13.91,31.54-31.54,31.54c-17.63,0-31.54-13.91-31.54-31.54
	C2368.27,774.83,2382.19,760.91,2399.81,760.91z"/>
</svg>
