<svg id="Pokéball" xmlns="http://www.w3.org/2000/svg" viewBox="0 0 511.5 511.4"><title>Poké_Ball_icon_illus</title><g id="Pokéball-2" data-name="Pokéball"><g id="Colours"><path id="Down" d="M297.6,380.9a84,84,0,0,1-82.1-66.6H81.1c9.5,110.5,102.2,197.2,215.1,197.2s205.7-86.7,215.1-197.2H379.7A83.88,83.88,0,0,1,297.6,380.9Z" transform="translate(-41.9 -41.3)" fill="#fff"/><path id="Shadow_Down" data-name="Shadow Down" d="M345.6,505.9c89.6-21,157.7-97.7,165.7-191.6h-53C453,399.5,408.3,471.7,345.6,505.9Z" transform="translate(-41.9 -41.3)" fill="#dfdfdf"/><path id="Center" d="M347.1,297h0a52.06,52.06,0,0,0-3.2-17.3A49.4,49.4,0,0,0,248.2,297h.1a49.4,49.4,0,1,0,98.8,0Z" transform="translate(-41.9 -41.3)" fill="#fff"/><path id="Up" d="M297.7,213.2a84,84,0,0,1,82.1,66.6H514.2C504.7,169.2,412,82.5,299,82.5S93.4,169.2,83.9,279.7H215.6A83.89,83.89,0,0,1,297.7,213.2Z" transform="translate(-41.9 -41.3)" fill="#ff1c1c"/><path id="Shadow_Up" data-name="Shadow Up" d="M458.3,279.7h55.8c-8.2-95.5-78.6-173.3-170.5-192.6C407.4,120.8,452.9,193.7,458.3,279.7Z" transform="translate(-41.9 -41.3)" fill="#df1818"/></g><path id="Line" d="M299,82.5c113,0,205.7,86.7,215.1,197.2H379.7a83.9,83.9,0,0,0-164.2,0H83.9C93.4,169.2,186.1,82.5,299,82.5Zm44.9,197.2A49.6,49.6,0,0,1,347,297h.1a49.4,49.4,0,1,1-98.8,0h-.1a49.42,49.42,0,0,1,95.7-17.3ZM296.2,511.6c-113,0-205.7-86.7-215.1-197.2H215.5a83.9,83.9,0,0,0,164.2,0H511.4C501.9,424.8,409.2,511.6,296.2,511.6Zm1.4-470.3C156.4,41.3,41.9,155.8,41.9,297S156.4,552.7,297.6,552.7,553.4,438.3,553.4,297,438.9,41.3,297.6,41.3Z" transform="translate(-41.9 -41.3)"/></g></svg>